<?xml version="1.0" encoding="UTF-8"?>
<svg id="Layer_1" xmlns="http://www.w3.org/2000/svg" version="1.1" xmlns:xlink="http://www.w3.org/1999/xlink" viewBox="0 0 1190.55 841.89">
  <!-- Generator: Adobe Illustrator 29.5.1, SVG Export Plug-In . SVG Version: 2.1.0 Build 141)  -->
  <defs>
    <style>
      .st0 {
        fill: url(#linear-gradient2);
      }

      .st1 {
        fill: url(#linear-gradient1);
      }

      .st2 {
        fill: url(#linear-gradient4);
      }

      .st3 {
        fill: url(#linear-gradient3);
      }

      .st4 {
        fill: url(#linear-gradient);
      }
    </style>
    <linearGradient id="linear-gradient" x1="860.53" y1="691.51" x2="922.42" y2="691.51" gradientUnits="userSpaceOnUse">
      <stop offset=".15" stop-color="#016394"/>
      <stop offset=".27" stop-color="#015b8c"/>
      <stop offset=".45" stop-color="#044576"/>
      <stop offset=".68" stop-color="#072352"/>
      <stop offset=".7" stop-color="#08204f"/>
    </linearGradient>
    <linearGradient id="linear-gradient1" x1="385.1" y1="321.62" x2="719.45" y2="321.62" xlink:href="#linear-gradient"/>
    <linearGradient id="linear-gradient2" x1="384.69" y1="513.23" x2="831.18" y2="513.23" xlink:href="#linear-gradient"/>
    <linearGradient id="linear-gradient3" x1="570.58" y1="504.88" x2="631.27" y2="504.88" xlink:href="#linear-gradient"/>
    <linearGradient id="linear-gradient4" x1="268.13" y1="420.94" x2="921.97" y2="420.94" xlink:href="#linear-gradient"/>
  </defs>
  <rect class="st4" x="860.53" y="639.68" width="61.89" height="103.66"/>
  <path class="st1" d="M512.43,386.31c-9.04,0-17.53-1.64-25.47-4.93-7.95-3.29-14.86-7.81-20.74-13.56-5.89-5.75-10.47-12.46-13.76-20.13-3.29-7.66-4.93-16.02-4.93-25.06s1.64-17.59,4.93-25.67c3.29-8.07,7.8-15.06,13.55-20.95,5.75-5.89,12.46-10.61,20.13-14.17,7.66-3.56,16.02-5.34,25.06-5.34h208.25v-62.43h-209.07c-16.71,0-32.66,3.28-47.85,9.86-15.2,6.57-28.55,15.68-40.05,27.31-11.5,11.64-20.61,25.33-27.32,41.07-6.71,15.75-10.06,32.8-10.06,51.14,0,16.71,3.22,32.66,9.65,47.85,6.43,15.2,15.33,28.55,26.7,40.05,11.36,11.5,24.85,20.68,40.46,27.52,15.61,6.85,32.45,10.27,50.52,10.27h58.49v-62.85h-58.49Z"/>
  <path class="st0" d="M794.41,423.69c-11.37-11.5-24.85-20.6-40.46-27.32-15.61-6.71-32.45-10.06-50.52-10.06h-72.16v62.85h72.16c9.31,0,17.93,1.64,25.88,4.93,7.94,3.29,14.79,7.8,20.54,13.55,5.75,5.75,10.27,12.46,13.56,20.13,3.29,7.67,4.93,16.02,4.93,25.06s-1.64,17.53-4.93,25.47c-3.29,7.95-7.8,14.79-13.56,20.54-5.75,5.75-12.46,10.34-20.13,13.76-7.67,3.43-16.02,5.13-25.06,5.13h-319.98v62.43h320.8c16.98,0,33.07-3.29,48.26-9.86,15.2-6.57,28.55-15.61,40.05-27.11,11.5-11.5,20.6-25.06,27.31-40.66,6.71-15.61,10.06-32.45,10.06-50.52,0-16.98-3.29-33.07-9.86-48.26-6.57-15.2-15.54-28.55-26.9-40.05Z"/>
  <rect class="st3" x="570.58" y="448.13" width="60.7" height="113.5"/>
  <path class="st2" d="M802.42,682.03h-414.74c-31.87,0-57.8-25.93-57.8-57.81V217.67c0-31.87,25.93-57.81,57.8-57.81h414.74c31.87,0,57.81,25.93,57.81,57.81l-.46,343.11h61.75l.46-343.11c0-65.92-53.63-119.55-119.55-119.55h-414.74c-65.92,0-119.55,53.63-119.55,119.55v406.55c0,65.92,53.63,119.55,119.55,119.55h414.74c3.99,0,7.93-.21,11.82-.59v-62.38c-3.82.8-7.77,1.22-11.82,1.22Z"/>
</svg>