<?xml version="1.0" encoding="UTF-8"?>
<svg id="Layer_1" xmlns="http://www.w3.org/2000/svg" version="1.1" xmlns:xlink="http://www.w3.org/1999/xlink" viewBox="0 0 1190.55 841.89">
  <!-- Generator: Adobe Illustrator 29.5.1, SVG Export Plug-In . SVG Version: 2.1.0 Build 141)  -->
  <defs>
    <style>
      .st0 {
        fill: url(#linear-gradient2);
      }

      .st1 {
        fill: url(#linear-gradient10);
      }

      .st2 {
        fill: url(#linear-gradient21);
      }

      .st3 {
        fill: url(#linear-gradient1);
      }

      .st4 {
        fill: url(#linear-gradient9);
      }

      .st5 {
        fill: url(#linear-gradient18);
      }

      .st6 {
        fill: url(#linear-gradient23);
      }

      .st7 {
        fill: url(#linear-gradient8);
      }

      .st8 {
        fill: url(#linear-gradient11);
      }

      .st9 {
        fill: url(#linear-gradient16);
      }

      .st10 {
        fill: url(#linear-gradient24);
      }

      .st11 {
        fill: url(#linear-gradient22);
      }

      .st12 {
        fill: url(#linear-gradient19);
      }

      .st13 {
        fill: url(#linear-gradient12);
      }

      .st14 {
        fill: url(#linear-gradient7);
      }

      .st15 {
        fill: url(#linear-gradient20);
      }

      .st16 {
        fill: url(#linear-gradient4);
      }

      .st17 {
        fill: url(#linear-gradient14);
      }

      .st18 {
        fill: url(#linear-gradient5);
      }

      .st19 {
        fill: url(#linear-gradient3);
      }

      .st20 {
        fill: url(#linear-gradient15);
      }

      .st21 {
        fill: url(#linear-gradient17);
      }

      .st22 {
        fill: url(#linear-gradient6);
      }

      .st23 {
        fill: url(#linear-gradient13);
      }

      .st24 {
        fill: url(#linear-gradient);
      }
    </style>
    <linearGradient id="linear-gradient" x1="266.74" y1="499.9" x2="284.39" y2="499.9" gradientUnits="userSpaceOnUse">
      <stop offset=".15" stop-color="#016394"/>
      <stop offset=".27" stop-color="#015b8c"/>
      <stop offset=".45" stop-color="#044576"/>
      <stop offset=".68" stop-color="#072352"/>
      <stop offset=".7" stop-color="#08204f"/>
    </linearGradient>
    <linearGradient id="linear-gradient1" x1="131.18" y1="394.43" x2="226.51" y2="394.43" xlink:href="#linear-gradient"/>
    <linearGradient id="linear-gradient2" x1="131.06" y1="449.07" x2="258.37" y2="449.07" xlink:href="#linear-gradient"/>
    <linearGradient id="linear-gradient3" x1="184.06" y1="446.69" x2="201.37" y2="446.69" xlink:href="#linear-gradient"/>
    <linearGradient id="linear-gradient4" x1="97.83" y1="422.75" x2="284.26" y2="422.75" xlink:href="#linear-gradient"/>
    <linearGradient id="linear-gradient5" x1="300.21" y1="487.67" x2="334.12" y2="487.67" xlink:href="#linear-gradient"/>
    <linearGradient id="linear-gradient6" x1="336.85" y1="490.28" x2="362.46" y2="490.28" xlink:href="#linear-gradient"/>
    <linearGradient id="linear-gradient7" x1="365.97" y1="494.76" x2="399.05" y2="494.76" xlink:href="#linear-gradient"/>
    <linearGradient id="linear-gradient8" x1="403.45" y1="490.28" x2="429.06" y2="490.28" xlink:href="#linear-gradient"/>
    <linearGradient id="linear-gradient9" x1="432.49" y1="494.76" x2="468.04" y2="494.76" xlink:href="#linear-gradient"/>
    <linearGradient id="linear-gradient10" x1="473.74" y1="492.26" x2="528.41" y2="492.26" xlink:href="#linear-gradient"/>
    <linearGradient id="linear-gradient11" x1="550.37" y1="487.98" x2="593.99" y2="487.98" xlink:href="#linear-gradient"/>
    <linearGradient id="linear-gradient12" x1="597.1" y1="502" x2="634.68" y2="502" xlink:href="#linear-gradient"/>
    <linearGradient id="linear-gradient13" x1="639.85" y1="494.41" x2="674.43" y2="494.41" xlink:href="#linear-gradient"/>
    <linearGradient id="linear-gradient14" x1="681.39" y1="494.76" x2="714.47" y2="494.76" xlink:href="#linear-gradient"/>
    <linearGradient id="linear-gradient15" x1="723.82" y1="494.41" x2="781.41" y2="494.41" xlink:href="#linear-gradient"/>
    <linearGradient id="linear-gradient16" x1="789.83" y1="486.81" x2="801.6" y2="486.81" xlink:href="#linear-gradient"/>
    <linearGradient id="linear-gradient17" x1="808" y1="494.76" x2="837.58" y2="494.76" xlink:href="#linear-gradient"/>
    <linearGradient id="linear-gradient18" x1="841.98" y1="494.76" x2="869.62" y2="494.76" xlink:href="#linear-gradient"/>
    <linearGradient id="linear-gradient19" x1="895.03" y1="488.1" x2="930.99" y2="488.1" xlink:href="#linear-gradient"/>
    <linearGradient id="linear-gradient20" x1="933.6" y1="494.76" x2="971.14" y2="494.76" xlink:href="#linear-gradient"/>
    <linearGradient id="linear-gradient21" x1="972.54" y1="490.28" x2="998.15" y2="490.28" xlink:href="#linear-gradient"/>
    <linearGradient id="linear-gradient22" x1="1023.28" y1="487.86" x2="1052.13" y2="487.86" xlink:href="#linear-gradient"/>
    <linearGradient id="linear-gradient23" x1="1051.22" y1="490.28" x2="1076.83" y2="490.28" xlink:href="#linear-gradient"/>
    <linearGradient id="linear-gradient24" x1="1080.38" y1="486.52" x2="1116.78" y2="486.52" xlink:href="#linear-gradient"/>
  </defs>
  <rect class="st24" x="266.74" y="485.12" width="17.65" height="29.56"/>
  <path class="st3" d="M167.48,412.88c-2.58,0-5-.47-7.26-1.41-2.27-.94-4.24-2.23-5.91-3.87-1.68-1.64-2.99-3.55-3.92-5.74-.94-2.19-1.41-4.57-1.41-7.14s.47-5.02,1.41-7.32c.94-2.3,2.23-4.29,3.86-5.97,1.64-1.68,3.55-3.03,5.74-4.04,2.19-1.01,4.57-1.52,7.14-1.52h59.38v-17.8h-59.61c-4.76,0-9.31.94-13.64,2.81-4.33,1.87-8.14,4.47-11.42,7.79-3.28,3.32-5.88,7.22-7.79,11.71-1.91,4.49-2.87,9.35-2.87,14.58,0,4.76.92,9.31,2.75,13.64,1.83,4.33,4.37,8.14,7.61,11.42,3.24,3.28,7.09,5.9,11.54,7.85,4.45,1.95,9.25,2.93,14.41,2.93h16.68v-17.92h-16.68Z"/>
  <path class="st0" d="M247.89,423.54c-3.24-3.28-7.09-5.87-11.54-7.79-4.45-1.91-9.25-2.87-14.41-2.87h-20.58v17.92h20.58c2.65,0,5.11.47,7.38,1.41,2.26.94,4.22,2.23,5.86,3.86,1.64,1.64,2.93,3.55,3.87,5.74.94,2.19,1.41,4.57,1.41,7.14s-.47,5-1.41,7.26c-.94,2.27-2.23,4.22-3.87,5.86-1.64,1.64-3.55,2.95-5.74,3.92-2.19.98-4.57,1.46-7.14,1.46h-91.24v17.8h91.47c4.84,0,9.43-.94,13.76-2.81,4.33-1.87,8.14-4.45,11.42-7.73,3.28-3.28,5.87-7.14,7.79-11.6,1.91-4.45,2.87-9.25,2.87-14.41,0-4.84-.94-9.43-2.81-13.76-1.87-4.33-4.43-8.14-7.67-11.42Z"/>
  <rect class="st19" x="184.06" y="430.5" width="17.31" height="32.36"/>
  <path class="st16" d="M250.17,497.2h-118.26c-9.09,0-16.48-7.39-16.48-16.48v-115.92c0-9.09,7.39-16.48,16.48-16.48h118.26c9.09,0,16.48,7.39,16.48,16.48l-.13,97.83h17.61l.13-97.83c0-18.8-15.29-34.09-34.09-34.09h-118.26c-18.8,0-34.09,15.29-34.09,34.09v115.92c0,18.8,15.29,34.09,34.09,34.09h118.26c1.14,0,2.26-.06,3.37-.17v-17.79c-1.09.23-2.22.35-3.37.35Z"/>
  <g>
    <path class="st18" d="M334.12,498.06c0,2.73-.51,5.12-1.52,7.18s-2.39,3.78-4.13,5.16c-1.74,1.38-3.77,2.41-6.1,3.11-2.33.7-4.81,1.04-7.46,1.04-1.79,0-3.46-.15-5-.44-1.54-.29-2.9-.65-4.07-1.06-1.18-.41-2.16-.85-2.95-1.3-.79-.45-1.36-.86-1.71-1.2s-.6-.85-.74-1.5c-.15-.66-.22-1.6-.22-2.83,0-.83.03-1.52.08-2.09s.14-1.02.26-1.36.28-.6.48-.74.43-.22.7-.22c.37,0,.9.22,1.58.66.68.44,1.56.93,2.63,1.46s2.35,1.02,3.83,1.46c1.48.44,3.2.66,5.16.66,1.28,0,2.43-.15,3.45-.46s1.88-.74,2.59-1.3,1.25-1.26,1.62-2.09c.37-.83.56-1.75.56-2.77,0-1.18-.32-2.19-.96-3.03-.64-.84-1.48-1.59-2.51-2.25s-2.2-1.27-3.51-1.85c-1.31-.58-2.66-1.18-4.05-1.83s-2.74-1.37-4.05-2.19-2.48-1.79-3.51-2.93c-1.03-1.14-1.87-2.48-2.51-4.03s-.96-3.41-.96-5.58c0-2.49.46-4.67,1.38-6.56.92-1.89,2.17-3.45,3.73-4.69,1.56-1.24,3.41-2.17,5.54-2.79s4.38-.92,6.76-.92c1.23,0,2.46.09,3.69.28s2.38.44,3.45.76,2.02.68,2.85,1.08,1.38.74,1.64,1,.45.49.54.68.17.43.24.74.11.7.14,1.16.04,1.05.04,1.75c0,.78-.02,1.43-.06,1.97s-.11.98-.2,1.32-.23.6-.4.76-.41.24-.7.24-.76-.19-1.4-.56-1.43-.78-2.37-1.22-2.02-.84-3.25-1.2-2.58-.54-4.05-.54c-1.15,0-2.15.14-3.01.42s-1.57.67-2.15,1.16-1,1.09-1.28,1.79c-.28.7-.42,1.43-.42,2.21,0,1.15.31,2.15.94,2.99s1.47,1.59,2.53,2.25,2.25,1.27,3.59,1.85,2.7,1.18,4.09,1.83,2.76,1.37,4.09,2.19c1.34.82,2.53,1.79,3.57,2.93,1.04,1.14,1.89,2.47,2.53,4.01.64,1.54.96,3.35.96,5.44Z"/>
    <path class="st22" d="M362.46,509.29c0,1.19-.07,2.1-.22,2.74s-.34,1.08-.59,1.34-.6.49-1.08.69-1.03.38-1.66.53-1.33.26-2.07.34-1.49.12-2.25.12c-2.03,0-3.79-.26-5.28-.77s-2.72-1.31-3.69-2.37c-.97-1.07-1.69-2.41-2.15-4.04-.46-1.62-.69-3.54-.69-5.76v-18.55h-4.34c-.51,0-.91-.32-1.18-.95s-.41-1.7-.41-3.19c0-.78.03-1.45.1-1.99s.17-.97.3-1.28.3-.53.51-.67.44-.2.71-.2h4.3v-8.08c0-.27.07-.51.22-.73s.42-.4.81-.55.92-.26,1.58-.32,1.48-.1,2.46-.1,1.83.03,2.5.1,1.18.18,1.56.32.65.33.81.55.24.46.24.73v8.08h7.87c.27,0,.51.07.71.2s.37.36.51.67.24.74.3,1.28.1,1.2.1,1.99c0,1.49-.14,2.55-.41,3.19s-.66.95-1.18.95h-7.91v17c0,1.98.31,3.46.93,4.44s1.73,1.48,3.33,1.48c.54,0,1.03-.05,1.46-.14s.82-.2,1.16-.32.62-.23.85-.32.44-.14.63-.14c.16,0,.32.05.47.14s.26.28.34.57.16.67.22,1.16.1,1.11.1,1.87Z"/>
    <path class="st14" d="M399.05,512.98c0,.38-.14.68-.41.89s-.7.37-1.28.47-1.44.14-2.58.14c-1.22,0-2.1-.05-2.66-.14s-.95-.25-1.18-.47-.34-.51-.34-.89v-2.88c-1.49,1.6-3.19,2.84-5.09,3.73-1.91.89-4.02,1.34-6.35,1.34-1.92,0-3.69-.25-5.3-.75-1.61-.5-3-1.24-4.18-2.23-1.18-.99-2.09-2.21-2.74-3.67-.65-1.46-.97-3.17-.97-5.11,0-2.11.41-3.94,1.24-5.5s2.06-2.84,3.69-3.86,3.67-1.77,6.11-2.25c2.44-.49,5.26-.73,8.48-.73h3.53v-2.19c0-1.14-.11-2.13-.34-2.98s-.61-1.56-1.14-2.13-1.23-.99-2.11-1.26-1.97-.41-3.27-.41c-1.7,0-3.23.19-4.57.57-1.34.38-2.52.8-3.55,1.26s-1.89.88-2.58,1.26-1.25.57-1.68.57c-.3,0-.56-.09-.79-.28s-.42-.46-.57-.81-.26-.78-.34-1.3c-.08-.51-.12-1.08-.12-1.7,0-.84.07-1.5.2-1.99s.39-.93.77-1.32,1.04-.83,1.99-1.3,2.06-.91,3.33-1.32,2.66-.74,4.16-.99,3.05-.39,4.65-.39c2.84,0,5.27.28,7.28.83s3.67,1.41,4.97,2.56,2.25,2.63,2.84,4.44c.6,1.81.89,3.96.89,6.45v24.35ZM389.02,497.48h-3.9c-1.65,0-3.06.12-4.22.37s-2.11.61-2.84,1.1c-.73.49-1.26,1.08-1.6,1.77s-.51,1.48-.51,2.37c0,1.52.48,2.71,1.44,3.57s2.29,1.3,4,1.3c1.43,0,2.75-.37,3.96-1.1s2.43-1.8,3.67-3.21v-6.17Z"/>
    <path class="st7" d="M429.06,509.29c0,1.19-.07,2.1-.22,2.74-.15.64-.34,1.08-.59,1.34s-.6.49-1.08.69-1.03.38-1.66.53-1.33.26-2.07.34-1.49.12-2.25.12c-2.03,0-3.79-.26-5.28-.77s-2.72-1.31-3.69-2.37c-.97-1.07-1.69-2.41-2.15-4.04-.46-1.62-.69-3.54-.69-5.76v-18.55h-4.34c-.51,0-.91-.32-1.18-.95s-.41-1.7-.41-3.19c0-.78.03-1.45.1-1.99s.17-.97.3-1.28.3-.53.51-.67.44-.2.71-.2h4.3v-8.08c0-.27.07-.51.22-.73s.42-.4.81-.55.92-.26,1.58-.32,1.48-.1,2.46-.1,1.83.03,2.5.1,1.18.18,1.56.32.65.33.81.55.24.46.24.73v8.08h7.87c.27,0,.51.07.71.2s.37.36.51.67.24.74.3,1.28.1,1.2.1,1.99c0,1.49-.14,2.55-.41,3.19s-.66.95-1.18.95h-7.91v17c0,1.98.31,3.46.93,4.44.62.99,1.73,1.48,3.33,1.48.54,0,1.03-.05,1.46-.14s.82-.2,1.16-.32.62-.23.85-.32.44-.14.63-.14c.16,0,.32.05.47.14s.26.28.34.57.16.67.22,1.16.1,1.11.1,1.87Z"/>
    <path class="st4" d="M468.04,493.7c0,1.24-.28,2.16-.83,2.76s-1.32.89-2.29.89h-22.04c0,1.54.18,2.94.55,4.2.37,1.26.95,2.33,1.75,3.21s1.83,1.55,3.08,2.01,2.77.69,4.53.69,3.35-.13,4.71-.39,2.52-.54,3.51-.85,1.81-.6,2.46-.85,1.18-.39,1.58-.39c.24,0,.45.05.61.14s.3.26.41.51.18.59.22,1.03.06,1.01.06,1.68c0,.6-.01,1.1-.04,1.52s-.07.78-.12,1.08-.14.55-.24.75-.25.4-.43.59-.66.45-1.44.77-1.79.64-3,.95-2.61.58-4.18.81-3.25.34-5.03.34c-3.22,0-6.04-.41-8.46-1.22s-4.44-2.04-6.07-3.69c-1.62-1.65-2.83-3.73-3.63-6.25-.8-2.52-1.2-5.47-1.2-8.85s.42-6.12,1.26-8.71c.84-2.58,2.06-4.78,3.65-6.57s3.54-3.17,5.82-4.12c2.29-.95,4.86-1.42,7.73-1.42,3.03,0,5.62.45,7.77,1.34,2.15.89,3.92,2.13,5.3,3.71,1.38,1.58,2.39,3.46,3.04,5.62s.97,4.52.97,7.06v1.62ZM458.13,490.78c.08-2.87-.49-5.12-1.72-6.76-1.23-1.64-3.13-2.46-5.7-2.46-1.3,0-2.43.24-3.39.73s-1.76,1.14-2.39,1.97c-.64.83-1.12,1.8-1.46,2.92s-.53,2.32-.59,3.59h15.26Z"/>
    <path class="st1" d="M528.41,519.23c0,.97-.05,1.76-.14,2.35s-.22,1.06-.39,1.38-.34.53-.53.63-.39.14-.61.14c-.89,0-2.06-.24-3.51-.73s-3.01-1.18-4.69-2.09-3.39-2.02-5.13-3.33c-1.75-1.31-3.36-2.82-4.85-4.53-1.24.57-2.75,1.06-4.53,1.48-1.77.42-3.74.63-5.9.63-4.09,0-7.65-.52-10.69-1.56-3.04-1.04-5.58-2.66-7.61-4.85-2.03-2.19-3.55-4.99-4.57-8.38-1.01-3.4-1.52-7.43-1.52-12.11,0-4.25.54-8.07,1.62-11.46,1.08-3.4,2.69-6.28,4.83-8.64s4.78-4.19,7.93-5.46c3.15-1.27,6.81-1.91,10.98-1.91,3.92,0,7.39.53,10.41,1.58s5.56,2.67,7.63,4.85c2.07,2.18,3.64,4.93,4.71,8.26,1.07,3.33,1.6,7.26,1.6,11.81,0,2.35-.16,4.57-.47,6.64-.31,2.07-.76,3.98-1.36,5.74-.6,1.76-1.33,3.37-2.19,4.83-.87,1.46-1.85,2.75-2.96,3.86,1.68,1.46,3.17,2.57,4.46,3.33,1.3.76,2.39,1.33,3.27,1.7.88.38,1.58.66,2.11.83s.94.41,1.24.69.51.77.65,1.46.2,1.64.2,2.86ZM512.26,487.86c0-2.73-.22-5.22-.65-7.47s-1.17-4.17-2.21-5.78c-1.04-1.61-2.43-2.85-4.16-3.73-1.73-.88-3.9-1.32-6.49-1.32s-4.82.49-6.57,1.46-3.18,2.29-4.26,3.94-1.85,3.58-2.29,5.78c-.45,2.21-.67,4.53-.67,6.96,0,2.89.22,5.49.65,7.79.43,2.3,1.16,4.26,2.19,5.88,1.03,1.62,2.41,2.86,4.14,3.71,1.73.85,3.91,1.28,6.53,1.28s4.82-.49,6.57-1.46c1.76-.97,3.18-2.3,4.26-3.98,1.08-1.68,1.85-3.64,2.29-5.88.45-2.25.67-4.64.67-7.18Z"/>
    <path class="st8" d="M593.99,487.21c0,4.82-.63,8.94-1.89,12.36-1.26,3.42-3.06,6.22-5.42,8.38s-5.21,3.75-8.58,4.77c-3.37,1.01-7.38,1.52-12.03,1.52h-12.54c-.89,0-1.64-.26-2.25-.79s-.91-1.39-.91-2.58v-45.78c0-1.19.3-2.05.91-2.58.61-.53,1.36-.79,2.25-.79h13.47c4.68,0,8.65.55,11.91,1.64s6.01,2.72,8.24,4.87c2.23,2.15,3.93,4.81,5.09,7.97,1.16,3.17,1.75,6.83,1.75,11ZM582.95,487.58c0-2.49-.29-4.8-.87-6.94-.58-2.14-1.52-3.99-2.8-5.56s-2.94-2.79-4.95-3.67-4.66-1.32-7.93-1.32h-5.4v35.71h5.56c2.92,0,5.38-.38,7.39-1.14s3.67-1.9,5.01-3.43c1.34-1.53,2.34-3.43,3-5.7.66-2.27.99-4.92.99-7.95Z"/>
    <path class="st13" d="M622.3,514.24l-4.38,12.82c-.24.68-.91,1.16-1.99,1.46s-2.66.45-4.75.45c-1.08,0-1.95-.05-2.6-.14s-1.14-.25-1.46-.47-.5-.49-.53-.81.05-.72.24-1.18l4.83-12.13c-.35-.16-.67-.41-.95-.75s-.49-.7-.63-1.08l-12.46-33.28c-.35-.95-.53-1.67-.53-2.17s.16-.89.49-1.18.87-.48,1.64-.59,1.79-.16,3.06-.16c1.16,0,2.08.02,2.76.06s1.2.14,1.58.3.66.41.85.75.38.82.57,1.44l8.52,24.23h.12l7.79-24.72c.16-.7.37-1.17.63-1.4s.68-.4,1.28-.51,1.64-.16,3.12-.16c1.16,0,2.13.05,2.9.16s1.34.31,1.7.61.55.7.55,1.2-.11,1.09-.32,1.77l-12.05,35.47Z"/>
    <path class="st23" d="M674.43,512.86c0,.27-.08.51-.24.71s-.43.37-.81.51-.9.24-1.56.3-1.48.1-2.46.1-1.83-.03-2.5-.1-1.18-.17-1.56-.3-.65-.3-.81-.51-.24-.44-.24-.71v-20.66c0-1.76-.13-3.14-.39-4.14-.26-1-.63-1.86-1.12-2.58-.49-.72-1.12-1.27-1.89-1.66s-1.67-.59-2.7-.59c-1.3,0-2.61.47-3.94,1.42-1.33.95-2.71,2.33-4.14,4.14v24.07c0,.27-.08.51-.24.71s-.44.37-.83.51-.91.24-1.56.3-1.47.1-2.48.1-1.83-.03-2.48-.1-1.17-.17-1.56-.3-.67-.3-.83-.51-.24-.44-.24-.71v-36.2c0-.27.07-.51.2-.71s.38-.37.73-.51.8-.24,1.36-.3,1.25-.1,2.09-.1,1.58.03,2.15.1,1.01.17,1.32.3.53.3.67.51.2.44.2.71v4.18c2-2.16,4.04-3.79,6.11-4.87,2.07-1.08,4.23-1.62,6.47-1.62,2.46,0,4.54.41,6.23,1.22s3.06,1.91,4.1,3.31,1.79,3.02,2.25,4.89.69,4.11.69,6.74v22.36Z"/>
    <path class="st17" d="M714.47,512.98c0,.38-.14.68-.41.89s-.7.37-1.28.47-1.44.14-2.58.14c-1.22,0-2.1-.05-2.66-.14s-.95-.25-1.18-.47-.34-.51-.34-.89v-2.88c-1.49,1.6-3.19,2.84-5.09,3.73s-4.02,1.34-6.35,1.34c-1.92,0-3.69-.25-5.3-.75-1.61-.5-3-1.24-4.18-2.23s-2.09-2.21-2.74-3.67-.97-3.17-.97-5.11c0-2.11.41-3.94,1.24-5.5s2.06-2.84,3.69-3.86c1.64-1.01,3.67-1.77,6.11-2.25,2.44-.49,5.26-.73,8.48-.73h3.53v-2.19c0-1.14-.11-2.13-.34-2.98-.23-.85-.61-1.56-1.14-2.13-.53-.57-1.23-.99-2.11-1.26s-1.97-.41-3.27-.41c-1.7,0-3.23.19-4.57.57-1.34.38-2.52.8-3.55,1.26-1.03.46-1.89.88-2.58,1.26s-1.25.57-1.68.57c-.3,0-.56-.09-.79-.28s-.42-.46-.57-.81-.26-.78-.34-1.3-.12-1.08-.12-1.7c0-.84.07-1.5.2-1.99s.39-.93.77-1.32,1.04-.83,1.99-1.3,2.06-.91,3.33-1.32c1.27-.41,2.66-.74,4.16-.99s3.05-.39,4.65-.39c2.84,0,5.27.28,7.28.83s3.67,1.41,4.97,2.56c1.3,1.15,2.25,2.63,2.84,4.44.6,1.81.89,3.96.89,6.45v24.35ZM704.44,497.48h-3.9c-1.65,0-3.06.12-4.22.37s-2.11.61-2.84,1.1c-.73.49-1.26,1.08-1.6,1.77s-.51,1.48-.51,2.37c0,1.52.48,2.71,1.44,3.57s2.29,1.3,4,1.3c1.43,0,2.75-.37,3.96-1.1s2.43-1.8,3.67-3.21v-6.17Z"/>
    <path class="st20" d="M781.41,512.86c0,.27-.08.51-.24.71s-.43.37-.81.51-.89.24-1.54.3-1.47.1-2.48.1-1.87-.03-2.52-.1-1.17-.17-1.56-.3-.66-.3-.81-.51-.22-.44-.22-.71v-21.47c0-1.22-.11-2.33-.34-3.33s-.58-1.86-1.06-2.58c-.47-.72-1.07-1.27-1.79-1.66s-1.58-.59-2.58-.59c-1.22,0-2.45.47-3.69,1.42-1.24.95-2.6,2.33-4.06,4.14v24.07c0,.27-.08.51-.24.71s-.44.37-.83.51-.91.24-1.56.3-1.46.1-2.44.1-1.83-.03-2.48-.1-1.17-.17-1.56-.3-.67-.3-.83-.51-.24-.44-.24-.71v-21.47c0-1.22-.11-2.33-.34-3.33s-.57-1.86-1.03-2.58c-.46-.72-1.06-1.27-1.79-1.66s-1.58-.59-2.56-.59c-1.24,0-2.49.47-3.73,1.42s-2.58,2.33-4.02,4.14v24.07c0,.27-.08.51-.24.71s-.44.37-.83.51-.91.24-1.56.3-1.47.1-2.48.1-1.83-.03-2.48-.1-1.17-.17-1.56-.3-.67-.3-.83-.51-.24-.44-.24-.71v-36.2c0-.27.07-.51.2-.71s.38-.37.73-.51.8-.24,1.36-.3,1.25-.1,2.09-.1,1.58.03,2.15.1,1.01.17,1.32.3.53.3.67.51.2.44.2.71v4.18c2-2.16,4-3.79,5.99-4.87,1.99-1.08,4.07-1.62,6.23-1.62,1.49,0,2.83.16,4.02.47s2.25.76,3.19,1.34,1.74,1.28,2.41,2.09,1.24,1.72,1.7,2.72c1.08-1.16,2.14-2.16,3.19-3,1.04-.84,2.07-1.52,3.08-2.05s2.03-.92,3.04-1.18,2.05-.39,3.1-.39c2.41,0,4.44.41,6.09,1.22,1.65.81,2.98,1.91,4,3.31s1.74,3.02,2.17,4.89c.43,1.87.65,3.84.65,5.93v23.17Z"/>
    <path class="st9" d="M801.6,464.4c0,2.06-.42,3.48-1.26,4.26s-2.39,1.18-4.67,1.18-3.85-.38-4.65-1.14-1.2-2.12-1.2-4.1.41-3.48,1.24-4.28,2.39-1.2,4.69-1.2,3.81.39,4.63,1.16,1.22,2.14,1.22,4.12ZM800.83,512.86c0,.27-.08.51-.24.71s-.44.37-.83.51-.91.24-1.56.3-1.47.1-2.48.1-1.83-.03-2.48-.1-1.17-.17-1.56-.3-.67-.3-.83-.51-.24-.44-.24-.71v-36.12c0-.27.08-.51.24-.71s.44-.38.83-.53.91-.26,1.56-.34,1.47-.12,2.48-.12,1.83.04,2.48.12,1.17.2,1.56.34.67.32.83.53.24.44.24.71v36.12Z"/>
    <path class="st21" d="M837.58,507.1c0,.7-.02,1.29-.06,1.77s-.09.87-.16,1.2-.15.59-.24.79-.3.46-.63.77-.88.69-1.66,1.14c-.78.45-1.68.85-2.68,1.2s-2.09.64-3.27.85-2.39.32-3.63.32c-2.79,0-5.26-.43-7.41-1.3s-3.96-2.14-5.42-3.84-2.56-3.75-3.31-6.19c-.74-2.44-1.12-5.22-1.12-8.36,0-3.63.45-6.76,1.36-9.4.91-2.64,2.17-4.82,3.79-6.55s3.54-3.02,5.76-3.86c2.22-.84,4.65-1.26,7.31-1.26,1.08,0,2.14.09,3.19.28s2.02.45,2.92.77,1.72.69,2.44,1.1,1.22.76,1.52,1.06.51.55.63.75.22.47.28.79.12.72.16,1.2.06,1.05.06,1.72c0,1.57-.14,2.67-.41,3.31s-.62.95-1.06.95c-.46,0-.95-.19-1.46-.57-.51-.38-1.12-.8-1.83-1.26s-1.54-.88-2.52-1.26c-.97-.38-2.14-.57-3.49-.57-2.65,0-4.68,1.02-6.09,3.06-1.41,2.04-2.11,5.04-2.11,8.99,0,1.95.18,3.67.53,5.15s.87,2.73,1.56,3.73,1.56,1.75,2.6,2.25,2.25.75,3.63.75,2.62-.21,3.63-.63c1.01-.42,1.9-.89,2.66-1.4s1.39-.98,1.91-1.4.95-.63,1.3-.63c.24,0,.45.07.61.2s.29.39.39.75c.09.37.17.83.22,1.4.05.57.08,1.3.08,2.19Z"/>
    <path class="st5" d="M869.62,502.63c0,2.06-.39,3.87-1.16,5.44-.77,1.57-1.86,2.88-3.27,3.94s-3.07,1.85-4.99,2.37-4,.79-6.25.79c-1.35,0-2.64-.1-3.88-.3-1.23-.2-2.33-.46-3.31-.77s-1.79-.63-2.44-.95-1.12-.63-1.42-.91-.53-.73-.69-1.34-.24-1.51-.24-2.7c0-.78.03-1.41.08-1.89s.14-.85.24-1.14.24-.47.41-.57.37-.14.61-.14c.3,0,.74.17,1.32.51s1.31.71,2.17,1.12c.87.41,1.87.78,3.02,1.14,1.15.35,2.46.53,3.92.53.92,0,1.74-.09,2.46-.28s1.34-.46,1.87-.81.93-.8,1.2-1.34.41-1.16.41-1.87c0-.81-.25-1.51-.75-2.09s-1.16-1.09-1.99-1.52-1.76-.84-2.8-1.22c-1.04-.38-2.11-.8-3.21-1.26s-2.16-.99-3.21-1.58-1.98-1.33-2.8-2.19-1.49-1.91-1.99-3.12-.75-2.68-.75-4.38.34-3.32,1.01-4.77c.68-1.45,1.65-2.69,2.92-3.71,1.27-1.03,2.82-1.83,4.65-2.39,1.83-.57,3.88-.85,6.15-.85,1.14,0,2.24.08,3.31.24s2.04.37,2.9.61,1.6.51,2.19.79,1.02.53,1.28.73.44.41.55.61.19.45.24.73.1.64.14,1.06.06.94.06,1.56c0,.73-.02,1.33-.06,1.79s-.11.83-.2,1.1-.22.45-.39.55-.35.14-.57.14c-.24,0-.62-.14-1.14-.43s-1.16-.59-1.93-.91-1.66-.63-2.68-.91-2.17-.43-3.47-.43c-.92,0-1.72.09-2.39.28s-1.23.46-1.66.81-.76.76-.97,1.24c-.22.47-.32.98-.32,1.52,0,.84.26,1.54.77,2.11.51.57,1.19,1.07,2.03,1.5s1.79.84,2.86,1.22c1.07.38,2.15.79,3.25,1.24s2.18.97,3.25,1.56,2.02,1.33,2.86,2.19c.84.87,1.52,1.9,2.03,3.1.51,1.2.77,2.63.77,4.28Z"/>
    <path class="st12" d="M930.99,477.67c0,2.95-.46,5.56-1.38,7.83s-2.26,4.19-4.02,5.74-3.92,2.74-6.47,3.55c-2.56.81-5.57,1.22-9.03,1.22h-4.38v16.76c0,.27-.09.51-.26.73s-.47.39-.87.53-.95.24-1.62.32-1.54.12-2.6.12-1.89-.04-2.58-.12-1.24-.19-1.64-.32-.69-.31-.85-.53-.24-.46-.24-.73v-47.24c0-1.27.33-2.23.99-2.86.66-.64,1.54-.95,2.62-.95h12.38c1.24,0,2.43.05,3.55.14s2.47.3,4.04.61,3.16.89,4.77,1.72c1.61.84,2.98,1.9,4.12,3.19,1.14,1.29,2,2.79,2.6,4.5.6,1.72.89,3.65.89,5.78ZM919.83,478.45c0-1.84-.32-3.35-.97-4.55-.65-1.19-1.45-2.07-2.39-2.64s-1.94-.93-2.98-1.08-2.12-.22-3.23-.22h-4.55v17.82h4.79c1.7,0,3.13-.23,4.28-.69s2.09-1.1,2.82-1.93c.73-.83,1.29-1.81,1.66-2.96.38-1.15.57-2.4.57-3.75Z"/>
    <path class="st15" d="M971.14,476.62c0,.14,0,.3-.02.49s-.04.4-.08.63-.09.49-.16.79-.16.64-.26,1.01l-10.88,32.75c-.14.46-.32.83-.55,1.12s-.61.51-1.14.67-1.24.27-2.15.32-2.09.08-3.55.08-2.6-.03-3.51-.1-1.62-.18-2.13-.34-.89-.39-1.12-.67-.41-.64-.55-1.08l-10.88-32.75c-.16-.54-.29-1.03-.39-1.46s-.15-.74-.16-.93-.02-.37-.02-.53c0-.27.07-.51.22-.71s.41-.37.79-.51.9-.23,1.56-.28,1.49-.08,2.5-.08c1.11,0,2,.03,2.68.1s1.21.16,1.6.28.67.3.83.53.3.51.41.83l8.24,26.58.24,1.01.24-1.01,8.12-26.58c.08-.32.21-.6.39-.83s.45-.41.83-.53.89-.22,1.52-.28,1.47-.1,2.5-.1,1.82.03,2.46.08,1.13.15,1.48.28.6.3.73.51.2.44.2.71Z"/>
    <path class="st2" d="M998.15,509.29c0,1.19-.07,2.1-.22,2.74s-.34,1.08-.59,1.34-.6.49-1.08.69-1.03.38-1.66.53-1.33.26-2.07.34-1.49.12-2.25.12c-2.03,0-3.79-.26-5.28-.77-1.49-.51-2.72-1.31-3.69-2.37-.97-1.07-1.69-2.41-2.15-4.04-.46-1.62-.69-3.54-.69-5.76v-18.55h-4.34c-.51,0-.91-.32-1.18-.95s-.41-1.7-.41-3.19c0-.78.03-1.45.1-1.99s.17-.97.3-1.28.3-.53.51-.67.44-.2.71-.2h4.3v-8.08c0-.27.07-.51.22-.73s.42-.4.81-.55.92-.26,1.58-.32,1.48-.1,2.46-.1,1.83.03,2.5.1,1.18.18,1.56.32.65.33.81.55.24.46.24.73v8.08h7.87c.27,0,.51.07.71.2s.37.36.51.67.24.74.3,1.28c.07.54.1,1.2.1,1.99,0,1.49-.14,2.55-.41,3.19s-.66.95-1.18.95h-7.91v17c0,1.98.31,3.46.93,4.44.62.99,1.73,1.48,3.33,1.48.54,0,1.03-.05,1.46-.14s.82-.2,1.16-.32.62-.23.85-.32.44-.14.63-.14c.16,0,.32.05.47.14s.26.28.34.57.16.67.22,1.16.1,1.11.1,1.87Z"/>
    <path class="st11" d="M1052.13,509.78c0,.81-.03,1.49-.1,2.05s-.17,1.01-.3,1.38-.3.63-.51.79-.44.24-.71.24h-24.07c-.89,0-1.64-.26-2.25-.79s-.91-1.39-.91-2.58v-47.69c0-.27.09-.51.26-.73s.47-.39.87-.53.95-.24,1.64-.32,1.55-.12,2.58-.12,1.92.04,2.6.12,1.22.19,1.62.32.7.31.87.53.26.46.26.73v42.25h16.52c.27,0,.51.07.71.22s.37.39.51.73.24.78.3,1.34.1,1.24.1,2.05Z"/>
    <path class="st6" d="M1076.83,509.29c0,1.19-.07,2.1-.22,2.74-.15.64-.34,1.08-.59,1.34s-.6.49-1.08.69-1.03.38-1.66.53-1.33.26-2.07.34-1.49.12-2.25.12c-2.03,0-3.79-.26-5.28-.77s-2.72-1.31-3.69-2.37-1.69-2.41-2.15-4.04c-.46-1.62-.69-3.54-.69-5.76v-18.55h-4.34c-.51,0-.91-.32-1.18-.95s-.41-1.7-.41-3.19c0-.78.03-1.45.1-1.99s.17-.97.3-1.28c.14-.31.3-.53.51-.67s.44-.2.71-.2h4.3v-8.08c0-.27.07-.51.22-.73s.42-.4.81-.55.92-.26,1.58-.32,1.48-.1,2.46-.1,1.83.03,2.5.1,1.18.18,1.56.32.65.33.81.55.24.46.24.73v8.08h7.87c.27,0,.51.07.71.2s.37.36.51.67.24.74.3,1.28.1,1.2.1,1.99c0,1.49-.14,2.55-.41,3.19s-.66.95-1.18.95h-7.91v17c0,1.98.31,3.46.93,4.44.62.99,1.73,1.48,3.33,1.48.54,0,1.03-.05,1.46-.14s.82-.2,1.16-.32.62-.23.85-.32.44-.14.63-.14c.16,0,.32.05.47.14s.26.28.34.57.16.67.22,1.16.1,1.11.1,1.87Z"/>
    <path class="st10" d="M1116.78,512.86c0,.3-.07.55-.2.75s-.37.37-.69.51-.76.23-1.32.28-1.24.08-2.05.08c-.87,0-1.57-.03-2.11-.08s-.98-.15-1.32-.28-.58-.3-.73-.51-.22-.45-.22-.75v-4.02c-1.87,2-3.82,3.56-5.86,4.67s-4.31,1.66-6.8,1.66c-2.76,0-5.09-.53-7-1.6-1.91-1.07-3.46-2.51-4.67-4.32-1.2-1.81-2.08-3.93-2.62-6.35s-.81-4.97-.81-7.65c0-3.22.34-6.11,1.03-8.68s1.7-4.76,3.02-6.57c1.33-1.81,2.98-3.21,4.95-4.18s4.25-1.46,6.82-1.46c2.03,0,3.87.41,5.52,1.24,1.65.83,3.29,2.04,4.91,3.63v-19.6c0-.27.07-.51.22-.73s.42-.4.81-.55.91-.26,1.56-.34,1.47-.12,2.48-.12,1.83.04,2.48.12,1.16.2,1.54.34.65.33.81.55.24.46.24.73v53.25ZM1106.64,488.67c-1.46-1.84-2.86-3.25-4.2-4.22-1.34-.97-2.74-1.46-4.2-1.46-1.33,0-2.47.33-3.43.99-.96.66-1.73,1.55-2.31,2.66-.58,1.11-1.01,2.35-1.3,3.71-.28,1.37-.43,2.77-.43,4.2,0,1.52.12,2.99.37,4.42s.64,2.71,1.2,3.84c.55,1.12,1.29,2.02,2.21,2.7s2.08,1.01,3.49,1.01c.7,0,1.39-.1,2.05-.3s1.34-.53,2.03-.99,1.4-1.06,2.13-1.81c.73-.74,1.53-1.66,2.39-2.74v-12.01Z"/>
  </g>
</svg>